# xmcd
# 
# Track frame offsets:
#     150
#     26060
#     53373
#     75728
#     93590
#     111683
#     133698
#     142233
#     164325
#     185513
#     205685
# 
# Disc length: 3061
# 
# Revision: 4
# Processed by: cddbd v1.5.2PL0 Copyright (c) Steve Scherf et al.
# Submitted via: fre:ac v1.0.31
# 
DISCID=9d0bf30b
DTITLE=McAuley Schenker Group - Unplugged Live
DYEAR=1993
DGENRE=Hard Rock
TTITLE0=Anytime
TTITLE1=We Believe in Love
TTITLE2=What Happens to Me
TTITLE3=Bad Boys
TTITLE4=Gimme Your Love
TTITLE5=Natural Thing
TTITLE6=Perrier
TTITLE7=When I'm Gone
TTITLE8=Nightmare
TTITLE9=Doctor Doctor
TTITLE10=Lights Out
EXTD=
EXTT0=
EXTT1=
EXTT2=
EXTT3=
EXTT4=
EXTT5=
EXTT6=
EXTT7=
EXTT8=
EXTT9=
EXTT10=
PLAYORDER=
